<svg width="19" height="19" viewBox="0 0 19 19" fill="none" xmlns="http://www.w3.org/2000/svg">
<path d="M1.97919 3.3645C1.97919 3.20703 2.04174 3.05601 2.15309 2.94466C2.26444 2.83331 2.41546 2.77075 2.57294 2.77075H3.01469C3.76677 2.77075 4.21802 3.27663 4.47531 3.74688C4.6471 4.06038 4.7714 4.42375 4.86877 4.75309C4.89511 4.75101 4.92152 4.74995 4.94794 4.74992H14.8422C15.4993 4.74992 15.9743 5.3785 15.7938 6.01104L14.3466 11.0848C14.2169 11.5399 13.9424 11.9404 13.5647 12.2255C13.187 12.5106 12.7267 12.6649 12.2534 12.665H7.5446C7.06762 12.665 6.60383 12.5084 6.22452 12.2192C5.84521 11.93 5.57137 11.5242 5.4451 11.0643L4.84344 8.86975L3.84594 5.50675L3.84515 5.50042C3.72165 5.05154 3.60606 4.63117 3.43348 4.31767C3.26802 4.01288 3.13502 3.95825 3.01548 3.95825H2.57294C2.41546 3.95825 2.26444 3.8957 2.15309 3.78435C2.04174 3.673 1.97919 3.52197 1.97919 3.3645ZM5.99531 8.58159L6.58985 10.75C6.7086 11.179 7.0989 11.4775 7.5446 11.4775H12.2534C12.4685 11.4775 12.6778 11.4074 12.8495 11.2778C13.0212 11.1483 13.146 10.9663 13.205 10.7595L14.5801 5.93742H5.21315L5.98423 8.53963L5.99531 8.58159Z" fill="#2F1AC4"/>
<path d="M8.70835 15.0416C8.70835 15.4615 8.54154 15.8642 8.24461 16.1612C7.94767 16.4581 7.54495 16.6249 7.12502 16.6249C6.70509 16.6249 6.30237 16.4581 6.00543 16.1612C5.7085 15.8642 5.54169 15.4615 5.54169 15.0416C5.54169 14.6217 5.7085 14.2189 6.00543 13.922C6.30237 13.6251 6.70509 13.4583 7.12502 13.4583C7.54495 13.4583 7.94767 13.6251 8.24461 13.922C8.54154 14.2189 8.70835 14.6217 8.70835 15.0416ZM7.52085 15.0416C7.52085 14.9366 7.47915 14.8359 7.40492 14.7617C7.33068 14.6875 7.23 14.6458 7.12502 14.6458C7.02004 14.6458 6.91936 14.6875 6.84512 14.7617C6.77089 14.8359 6.72919 14.9366 6.72919 15.0416C6.72919 15.1466 6.77089 15.2472 6.84512 15.3215C6.91936 15.3957 7.02004 15.4374 7.12502 15.4374C7.23 15.4374 7.33068 15.3957 7.40492 15.3215C7.47915 15.2472 7.52085 15.1466 7.52085 15.0416Z" fill="#2F1AC4"/>
<path d="M14.25 15.0416C14.25 15.4615 14.0832 15.8642 13.7863 16.1612C13.4894 16.4581 13.0866 16.6249 12.6667 16.6249C12.2468 16.6249 11.8441 16.4581 11.5471 16.1612C11.2502 15.8642 11.0834 15.4615 11.0834 15.0416C11.0834 14.6217 11.2502 14.2189 11.5471 13.922C11.8441 13.6251 12.2468 13.4583 12.6667 13.4583C13.0866 13.4583 13.4894 13.6251 13.7863 13.922C14.0832 14.2189 14.25 14.6217 14.25 15.0416ZM13.0625 15.0416C13.0625 14.9366 13.0208 14.8359 12.9466 14.7617C12.8724 14.6875 12.7717 14.6458 12.6667 14.6458C12.5617 14.6458 12.461 14.6875 12.3868 14.7617C12.3126 14.8359 12.2709 14.9366 12.2709 15.0416C12.2709 15.1466 12.3126 15.2472 12.3868 15.3215C12.461 15.3957 12.5617 15.4374 12.6667 15.4374C12.7717 15.4374 12.8724 15.3957 12.9466 15.3215C13.0208 15.2472 13.0625 15.1466 13.0625 15.0416Z" fill="#2F1AC4"/>
</svg>
