<svg width="11" height="11" viewBox="0 0 11 11" fill="none" xmlns="http://www.w3.org/2000/svg">
<path d="M5.49999 8.70801C5.59064 8.70801 5.67925 8.68113 5.75463 8.63077C5.83 8.5804 5.88874 8.50882 5.92343 8.42507C5.95812 8.34132 5.9672 8.24917 5.94952 8.16026C5.93183 8.07135 5.88818 7.98968 5.82408 7.92558C5.75998 7.86149 5.67831 7.81783 5.58941 7.80015C5.5005 7.78246 5.40834 7.79154 5.32459 7.82623C5.24084 7.86092 5.16926 7.91967 5.1189 7.99504C5.06854 8.07041 5.04166 8.15903 5.04166 8.24968C5.04166 8.37123 5.08994 8.48781 5.1759 8.57377C5.26185 8.65972 5.37843 8.70801 5.49999 8.70801ZM7.79166 8.70801C7.88231 8.70801 7.97092 8.68113 8.04629 8.63077C8.12167 8.5804 8.18041 8.50882 8.2151 8.42507C8.24979 8.34132 8.25887 8.24917 8.24118 8.16026C8.2235 8.07135 8.17985 7.98968 8.11575 7.92558C8.05165 7.86149 7.96998 7.81783 7.88107 7.80015C7.79217 7.78246 7.70001 7.79154 7.61626 7.82623C7.53251 7.86092 7.46093 7.91967 7.41057 7.99504C7.3602 8.07041 7.33332 8.15903 7.33332 8.24968C7.33332 8.37123 7.38161 8.48781 7.46757 8.57377C7.55352 8.65972 7.6701 8.70801 7.79166 8.70801ZM7.79166 6.87467C7.88231 6.87467 7.97092 6.84779 8.04629 6.79743C8.12167 6.74707 8.18041 6.67549 8.2151 6.59174C8.24979 6.50799 8.25887 6.41583 8.24118 6.32693C8.2235 6.23802 8.17985 6.15635 8.11575 6.09225C8.05165 6.02815 7.96998 5.9845 7.88107 5.96681C7.79217 5.94913 7.70001 5.95821 7.61626 5.9929C7.53251 6.02759 7.46093 6.08633 7.41057 6.16171C7.3602 6.23708 7.33332 6.32569 7.33332 6.41634C7.33332 6.5379 7.38161 6.65448 7.46757 6.74043C7.55352 6.82639 7.6701 6.87467 7.79166 6.87467ZM5.49999 6.87467C5.59064 6.87467 5.67925 6.84779 5.75463 6.79743C5.83 6.74707 5.88874 6.67549 5.92343 6.59174C5.95812 6.50799 5.9672 6.41583 5.94952 6.32693C5.93183 6.23802 5.88818 6.15635 5.82408 6.09225C5.75998 6.02815 5.67831 5.9845 5.58941 5.96681C5.5005 5.94913 5.40834 5.95821 5.32459 5.9929C5.24084 6.02759 5.16926 6.08633 5.1189 6.16171C5.06854 6.23708 5.04166 6.32569 5.04166 6.41634C5.04166 6.5379 5.08994 6.65448 5.1759 6.74043C5.26185 6.82639 5.37843 6.87467 5.49999 6.87467ZM8.70832 1.37467H8.24999V0.916341C8.24999 0.794784 8.2017 0.678205 8.11575 0.592251C8.02979 0.506296 7.91321 0.458008 7.79166 0.458008C7.6701 0.458008 7.55352 0.506296 7.46757 0.592251C7.38161 0.678205 7.33332 0.794784 7.33332 0.916341V1.37467H3.66666V0.916341C3.66666 0.794784 3.61837 0.678205 3.53241 0.592251C3.44646 0.506296 3.32988 0.458008 3.20832 0.458008C3.08677 0.458008 2.97019 0.506296 2.88423 0.592251C2.79828 0.678205 2.74999 0.794784 2.74999 0.916341V1.37467H2.29166C1.92698 1.37467 1.57725 1.51954 1.31938 1.7774C1.06152 2.03527 0.916656 2.385 0.916656 2.74967V9.16634C0.916656 9.53101 1.06152 9.88075 1.31938 10.1386C1.57725 10.3965 1.92698 10.5413 2.29166 10.5413H8.70832C9.073 10.5413 9.42273 10.3965 9.68059 10.1386C9.93846 9.88075 10.0833 9.53101 10.0833 9.16634V2.74967C10.0833 2.385 9.93846 2.03527 9.68059 1.7774C9.42273 1.51954 9.073 1.37467 8.70832 1.37467ZM9.16666 9.16634C9.16666 9.2879 9.11837 9.40448 9.03241 9.49043C8.94646 9.57639 8.82988 9.62468 8.70832 9.62468H2.29166C2.1701 9.62468 2.05352 9.57639 1.96757 9.49043C1.88161 9.40448 1.83332 9.2879 1.83332 9.16634V5.04134H9.16666V9.16634ZM9.16666 4.12467H1.83332V2.74967C1.83332 2.62812 1.88161 2.51154 1.96757 2.42558C2.05352 2.33963 2.1701 2.29134 2.29166 2.29134H2.74999V2.74967C2.74999 2.87123 2.79828 2.98781 2.88423 3.07377C2.97019 3.15972 3.08677 3.20801 3.20832 3.20801C3.32988 3.20801 3.44646 3.15972 3.53241 3.07377C3.61837 2.98781 3.66666 2.87123 3.66666 2.74967V2.29134H7.33332V2.74967C7.33332 2.87123 7.38161 2.98781 7.46757 3.07377C7.55352 3.15972 7.6701 3.20801 7.79166 3.20801C7.91321 3.20801 8.02979 3.15972 8.11575 3.07377C8.2017 2.98781 8.24999 2.87123 8.24999 2.74967V2.29134H8.70832C8.82988 2.29134 8.94646 2.33963 9.03241 2.42558C9.11837 2.51154 9.16666 2.62812 9.16666 2.74967V4.12467ZM3.20832 6.87467C3.29897 6.87467 3.38759 6.84779 3.46296 6.79743C3.53833 6.74707 3.59708 6.67549 3.63177 6.59174C3.66646 6.50799 3.67553 6.41583 3.65785 6.32693C3.64016 6.23802 3.59651 6.15635 3.53241 6.09225C3.46831 6.02815 3.38665 5.9845 3.29774 5.96681C3.20883 5.94913 3.11668 5.95821 3.03293 5.9929C2.94918 6.02759 2.8776 6.08633 2.82723 6.16171C2.77687 6.23708 2.74999 6.32569 2.74999 6.41634C2.74999 6.5379 2.79828 6.65448 2.88423 6.74043C2.97019 6.82639 3.08677 6.87467 3.20832 6.87467ZM3.20832 8.70801C3.29897 8.70801 3.38759 8.68113 3.46296 8.63077C3.53833 8.5804 3.59708 8.50882 3.63177 8.42507C3.66646 8.34132 3.67553 8.24917 3.65785 8.16026C3.64016 8.07135 3.59651 7.98968 3.53241 7.92558C3.46831 7.86149 3.38665 7.81783 3.29774 7.80015C3.20883 7.78246 3.11668 7.79154 3.03293 7.82623C2.94918 7.86092 2.8776 7.91967 2.82723 7.99504C2.77687 8.07041 2.74999 8.15903 2.74999 8.24968C2.74999 8.37123 2.79828 8.48781 2.88423 8.57377C2.97019 8.65972 3.08677 8.70801 3.20832 8.70801Z" fill="#FFA454"/>
</svg>
