<svg width="15" height="15" viewBox="0 0 15 15" fill="none" xmlns="http://www.w3.org/2000/svg">
<path d="M13.28 2.26533C12.5279 1.51308 11.5309 1.05572 10.4702 0.976429C9.40945 0.897134 8.35549 1.20117 7.49997 1.83324C6.59873 1.1629 5.47697 0.858938 4.36058 0.98256C3.2442 1.10618 2.21612 1.64821 1.48337 2.49949C0.750622 3.35077 0.367637 4.44807 0.411539 5.57042C0.45544 6.69277 0.922967 7.7568 1.71997 8.54824L6.99706 13.8253C7.0629 13.8917 7.14125 13.9444 7.22756 13.9804C7.31388 14.0163 7.40646 14.0348 7.49997 14.0348C7.59348 14.0348 7.68606 14.0163 7.77238 13.9804C7.8587 13.9444 7.93704 13.8917 8.00289 13.8253L13.28 8.54824C13.6927 8.1358 14.0201 7.64607 14.2435 7.10704C14.4668 6.56802 14.5818 5.99026 14.5818 5.40678C14.5818 4.82331 14.4668 4.24555 14.2435 3.70652C14.0201 3.1675 13.6927 2.67777 13.28 2.26533ZM12.2812 7.54949L7.49997 12.3237L2.71872 7.54949C2.29739 7.1264 2.01037 6.58832 1.89368 6.00273C1.77698 5.41715 1.83581 4.81014 2.06277 4.25786C2.28974 3.70558 2.67473 3.23262 3.16947 2.89831C3.6642 2.564 4.24664 2.38322 4.84372 2.37866C5.64139 2.38061 6.40567 2.69906 6.96872 3.26408C7.03457 3.33047 7.11291 3.38316 7.19923 3.41912C7.28555 3.45508 7.37813 3.4736 7.47164 3.4736C7.56515 3.4736 7.65773 3.45508 7.74405 3.41912C7.83036 3.38316 7.90871 3.33047 7.97456 3.26408C8.5542 2.76178 9.30303 2.49847 10.0695 2.52743C10.8359 2.55638 11.5628 2.87545 12.1029 3.42004C12.6429 3.96464 12.956 4.69409 12.9786 5.46075C13.0012 6.22742 12.7316 6.97403 12.2246 7.54949H12.2812Z" fill="url(#paint0_linear_142_23)"/>
<defs>
<linearGradient id="paint0_linear_142_23" x1="0.408142" y1="0.955566" x2="13.4453" y2="15.0836" gradientUnits="userSpaceOnUse">
<stop stop-color="#1389FF"/>
<stop offset="1" stop-color="#1DB4E7"/>
</linearGradient>
</defs>
</svg>
